<?xml version="1.0" encoding="UTF-8" standalone="no"?>
<!-- Created with Inkscape (http://www.inkscape.org/) -->

<svg
   width="210mm"
   height="297mm"
   viewBox="0 0 210 297"
   version="1.1"
   id="svg1"
   xml:space="preserve"
   xmlns:inkscape="http://www.inkscape.org/namespaces/inkscape"
   xmlns:sodipodi="http://sodipodi.sourceforge.net/DTD/sodipodi-0.dtd"
   xmlns="http://www.w3.org/2000/svg"
   xmlns:svg="http://www.w3.org/2000/svg"><sodipodi:namedview
     id="namedview1"
     pagecolor="#ffffff"
     bordercolor="#000000"
     borderopacity="0.25"
     inkscape:showpageshadow="2"
     inkscape:pageopacity="0.0"
     inkscape:pagecheckerboard="0"
     inkscape:deskcolor="#d1d1d1"
     inkscape:document-units="mm" /><defs
     id="defs1" /><g
     inkscape:label="Ebene 1"
     inkscape:groupmode="layer"
     id="layer1"><g
       style="overflow:visible;stroke-width:1.00063;stroke-dasharray:none"
       id="g1"
       transform="matrix(0.35277778,0,0,0.35277778,-3.0413542,8.8036755)"><path
         d="m 409.6168,387.9557 -16.4487,28.6742 c -1.8381,2.7794 -1.1427,7.5194 1.4162,9.6539 17.5892,16.3308 31.5379,40.1538 37.1767,65.8036 5.6387,25.6498 2.9675,53.1265 -6.1508,75.3286 -8.6565,22.3862 -25.6207,44.1651 -47.359,58.9012 -21.7384,14.7361 -48.2509,22.4296 -72.2512,22.181 -24.0003,0.2486 -50.5128,-7.4449 -72.2512,-22.181 -21.7383,-14.7361 -38.7025,-36.515 -47.359,-58.9012 -9.1183,-22.2021 -11.7895,-49.6788 -6.1508,-75.3286 5.6388,-25.6498 19.5875,-49.4728 37.1767,-65.8036 2.5589,-2.1345 3.2543,-6.8745 1.4162,-9.6539 l -16.4487,-28.6742 c -1.0845,-1.9757 -3.2916,-3.5162 -5.5201,-3.8527 -2.2143,-0.4202 -4.8069,0.3027 -6.4843,1.808 -25.6007,21.6298 -46.5506,54.2516 -55.6907,89.9012 -9.1401,35.6496 -6.4703,74.3271 5.5652,105.6063 11.3423,31.5372 34.6083,62.5496 64.8312,83.5499 30.2229,21.0004 67.4027,31.9885 100.9155,31.6186 33.5128,0.3699 70.6926,-10.6182 100.9155,-31.6186 30.2229,-21.0003 53.4889,-52.0127 64.8312,-83.5499 12.0355,-31.2792 14.7053,-69.9567 5.5652,-105.6063 -9.1401,-35.6496 -30.09,-68.2714 -55.6907,-89.9012 -1.6774,-1.5053 -4.27,-2.2282 -6.4843,-1.808 -2.2285,0.3365 -4.4356,1.877 -5.5201,3.8527 z"
         stroke="#000000"
         stroke-width="0.24"
         fill="none"
         id="path1"
         style="fill:#b7cddc;fill-opacity:1;stroke:none;stroke-width:1.00063;stroke-dasharray:none" /><path
         d="m 393.2022,257.054 c 0.5258,-1.4029 -0.0394,-3.3482 -1.2352,-4.251 -1.1081,-1.0083 -3.1243,-1.2043 -4.406,-0.4284 l -46.108,25.1064 c -0.9024,0.5269 -2.2236,0.5054 -3.1084,-0.0506 -0.9164,-0.5021 -1.5784,-1.6457 -1.5576,-2.6905 L 334.1462,7.436868 c 0.1022,-1.578691 -1.44,-3.355195 -3.0174,-3.475754 -1.542,-0.353569 -3.5424,0.884479 -3.9138,2.422255 L 218.8085,343.0007 c -0.5211,1.398 0.0378,3.3318 1.2245,4.2363 1.1001,1.0079 3.1022,1.216 4.3861,0.4558 l 45.9421,-24.4683 c 0.9035,-0.516 2.2163,-0.4856 3.0949,0.0716 0.91,0.5044 1.5655,1.6422 1.5454,2.6824 l 2.6933,265.7811 c -0.1017,1.578 1.4391,3.3532 3.0156,3.4747 1.5412,0.3539 3.541,-0.8815 3.9142,-2.418 z"
         stroke="#000000"
         stroke-width="0.24"
         fill="none"
         id="path2"
         style="fill:#2d6988;fill-opacity:1;stroke:none;stroke-width:1.00063;stroke-dasharray:none" /><path
         d="m 455.6887,307.6413 -20.3411,35.4595 c -1.9962,2.9337 -0.9877,8.1458 1.9587,10.1232 32.3471,24.8986 59.5882,63.7981 72.2181,106.972 12.63,43.1739 10.6487,90.6221 -3.1795,129.0285 -12.9235,38.7203 -40.7481,77.2046 -77.3992,103.2852 C 392.2946,718.5903 346.8172,732.2672 306,731.7885 265.1828,732.2672 219.7054,718.5903 183.0543,692.5097 146.4032,666.4291 118.5786,627.9448 105.6551,589.2245 91.82692,550.8181 89.84563,503.3699 102.4755,460.196 c 12.63,-43.1739 39.8711,-82.0734 72.2182,-106.972 2.9464,-1.9774 3.9549,-7.1895 1.9587,-10.1232 l -20.3411,-35.4595 c -1.0486,-1.901 -3.1236,-3.4021 -5.2572,-3.8033 -2.119,-0.4725 -4.6177,0.0891 -6.3308,1.4228 -20.887,15.679 -40.4853,35.3077 -56.85456,58.1795 -16.3693,22.8719 -29.5096,48.9869 -38.08297,76.5237 -8.57337,27.5368 -12.57981,56.4955 -12.08697,84.6172 0.49285,28.1218 5.48498,55.4065 13.78019,80.1711 8.25374,24.7785 20.66209,49.586 37.16949,72.3584 16.50742,22.7724 37.11392,43.5095 60.51592,60.3656 23.4019,16.856 49.5995,29.8309 76.4287,38.2731 26.8291,8.4421 54.29,12.3517 80.4069,12.3298 26.1169,0.0219 53.5778,-3.8877 80.4069,-12.3298 26.8292,-8.4422 53.0268,-21.4171 76.4288,-38.2731 23.4019,-16.8561 44.0084,-37.5932 60.5158,-60.3656 16.5074,-22.7724 28.9158,-47.5799 37.1695,-72.3584 8.2952,-24.7646 13.2873,-52.0493 13.7802,-80.1711 0.4929,-28.1217 -3.5136,-57.0804 -12.087,-84.6172 -8.5733,-27.5368 -21.7137,-53.6518 -38.0829,-76.5237 -16.3693,-22.8718 -35.9676,-42.5005 -56.8546,-58.1795 -1.7131,-1.3337 -4.2118,-1.8953 -6.3308,-1.4228 -2.1336,0.4012 -4.2086,1.9023 -5.2572,3.8033 z"
         stroke="#000000"
         stroke-width="0.24"
         fill="none"
         id="path3"
         style="fill:#502112;fill-opacity:1;stroke:none;stroke-width:1.00063;stroke-dasharray:none" /></g></g><style
     type="text/css"
     id="style1">&#10;	.st0{fill:#2D6988;}&#10;	.st1{fill:#502112;}&#10;	.st2{fill:#B7CDDC;}&#10;	.st3{fill:#381204;}&#10;</style></svg>
