<?xml version="1.0" encoding="utf-8"?>
<!-- Generator: Adobe Illustrator 23.0.3, SVG Export Plug-In . SVG Version: 6.00 Build 0)  -->
<svg version="1.1" id="Ebene_1" xmlns="http://www.w3.org/2000/svg" xmlns:xlink="http://www.w3.org/1999/xlink" x="0px" y="0px"
	 viewBox="0 0 297.6 99.2" style="enable-background:new 0 0 297.6 99.2;" xml:space="preserve">
<style type="text/css">
	.st0{fill:#2D6988;}
	.st1{fill:#502112;}
	.st2{fill:#B7CDDC;}
	.st3{fill:#381204;}
</style>
<g>
	<path class="st0" d="M73.4,68.6c-1.7-1-3.1-2.4-4.1-4.2c-1-1.8-1.5-3.7-1.5-5.8v-11c0-2.1,0.5-4,1.5-5.8s2.4-3.2,4.1-4.2
		S77,36,79.1,36c1.7,0,3.2,0.3,4.7,0.9c1.4,0.6,2.7,1.4,3.8,2.5c0.2,0.1,0.2,0.3,0.2,0.6c0,0.2-0.1,0.4-0.2,0.6
		c-0.7,0.8-1.1,1.2-1.3,1.4c-0.2,0.2-0.4,0.2-0.7,0.2c-0.3,0-0.5-0.1-0.7-0.3c-1.6-1.5-3.5-2.3-5.8-2.3c-1.4,0-2.6,0.4-3.7,1.1
		c-1.1,0.7-2,1.7-2.7,2.9s-1,2.5-1,3.9v11.1c0,1.4,0.3,2.7,1,3.9s1.6,2.2,2.7,2.9c1.1,0.7,2.4,1.1,3.7,1.1c2.3,0,4.2-0.8,5.8-2.3
		c0.2-0.2,0.5-0.3,0.7-0.3s0.4,0.1,0.7,0.2c0.2,0.2,0.6,0.7,1.3,1.4c0.2,0.2,0.2,0.4,0.2,0.6s-0.1,0.4-0.2,0.6
		c-1.1,1.1-2.4,1.9-3.8,2.5s-3,0.9-4.7,0.9C77,70.2,75.1,69.7,73.4,68.6"/>
	<path class="st0" d="M94.7,69.4c-0.1-0.1-0.2-0.3-0.2-0.5V34.4c0-0.2,0.1-0.3,0.2-0.5c0.1-0.1,0.3-0.2,0.5-0.2h2.4
		c0.2,0,0.3,0.1,0.5,0.2c0.1,0.1,0.2,0.3,0.2,0.5v11.8c0.8-1.3,1.9-2.3,3.2-2.9c1.3-0.7,2.8-1,4.4-1c2.7,0,4.8,0.8,6.5,2.5
		c1.7,1.6,2.5,3.8,2.5,6.5v17.8c0,0.2-0.1,0.3-0.2,0.5c-0.1,0.1-0.3,0.2-0.5,0.2h-2.4c-0.2,0-0.3-0.1-0.5-0.2
		c-0.1-0.1-0.2-0.3-0.2-0.5v-17c0-2-0.5-3.6-1.6-4.6c-1.1-1.1-2.5-1.6-4.3-1.6c-2.1,0-3.8,0.7-5.1,2.1c-1.3,1.4-1.9,3.3-1.9,5.7
		v15.4c0,0.2-0.1,0.3-0.2,0.5c-0.1,0.1-0.3,0.2-0.5,0.2h-2.4C94.9,69.6,94.8,69.5,94.7,69.4"/>
	<path class="st0" d="M122.9,68.1c-1.5-1.4-2.3-3.2-2.3-5.4c0-2.1,0.7-3.8,2.1-5.1c1.4-1.4,3.4-2.2,5.9-2.5l6.1-0.9
		c0.9-0.1,1.6-0.4,2-0.9s0.6-1.2,0.6-2.1v-0.4c0-1.5-0.6-2.7-1.8-3.7c-1.2-0.9-2.7-1.4-4.4-1.4c-1.4,0-2.6,0.3-3.6,0.8
		c-1,0.6-1.8,1.3-2.4,2.3c-0.3,0.4-0.6,0.6-0.9,0.6c-0.2,0-0.4-0.1-0.6-0.2l-1.3-0.9c-0.3-0.3-0.4-0.5-0.4-0.8c0-0.1,0-0.3,0.1-0.5
		c0.9-1.5,2.2-2.7,3.8-3.6c1.6-0.9,3.4-1.3,5.5-1.3c1.9,0,3.6,0.4,5.1,1.1c1.5,0.7,2.6,1.7,3.4,3c0.8,1.3,1.2,2.8,1.2,4.5v18.1
		c0,0.2-0.1,0.3-0.2,0.5c-0.1,0.1-0.3,0.2-0.5,0.2h-2c-0.2,0-0.3-0.1-0.5-0.2c-0.1-0.1-0.2-0.3-0.2-0.5v-3.3c-1,1.4-2.2,2.5-3.8,3.3
		c-1.5,0.8-3.2,1.2-5,1.2C126.5,70.2,124.5,69.5,122.9,68.1 M133.5,65.6c1.3-0.8,2.2-1.8,3-3.1c0.7-1.2,1.1-2.5,1.1-3.7V57
		c-0.8,0.1-3.2,0.4-7.3,1l-1.3,0.2c-3.1,0.5-4.7,2-4.7,4.4c0,1.3,0.5,2.3,1.4,3.1s2.2,1.2,3.7,1.2C130.8,66.9,132.2,66.5,133.5,65.6
		"/>
	<path class="st0" d="M147,69.4c-0.1-0.1-0.2-0.3-0.2-0.5v-2.2c0-0.2,0.1-0.3,0.2-0.5c0.1-0.1,0.3-0.2,0.5-0.2h3.9V46.2h-3.9
		c-0.2,0-0.3-0.1-0.5-0.2c-0.1-0.1-0.2-0.3-0.2-0.5v-2c0-0.2,0.1-0.3,0.2-0.5c0.1-0.1,0.3-0.2,0.5-0.2h5.9c0.5,0,0.9,0.2,1.2,0.5
		s0.5,0.7,0.5,1.2v2.4l2.7-2.1c1.1-0.9,2.1-1.5,2.8-1.8s1.5-0.4,2.2-0.4h1.4c0.2,0,0.4,0.1,0.5,0.2c0.1,0.1,0.2,0.3,0.2,0.5v2.3
		c0,0.2-0.1,0.3-0.2,0.5c-0.1,0.1-0.3,0.2-0.5,0.2h-1c-0.8,0-1.5,0.2-2.2,0.5s-1.7,1-3.1,2.1l-2.8,2.2v15h5.5c0.2,0,0.3,0.1,0.5,0.2
		c0.1,0.1,0.2,0.3,0.2,0.5V69c0,0.2-0.1,0.3-0.2,0.5c-0.1,0.1-0.3,0.2-0.5,0.2h-13.1C147.3,69.6,147.2,69.5,147,69.4"/>
	<path class="st0" d="M171.5,77.6c-1.9-1.1-2.8-2.7-2.8-4.9c0-1.1,0.2-2.2,0.8-3.2c0.5-1,1.2-1.8,2-2.5c-0.8-0.5-1.4-1.1-1.7-1.6
		c-0.4-0.5-0.5-1.2-0.5-2c0-1,0.3-1.9,0.8-2.8c0.6-0.9,1.3-1.6,2.2-2.2c-1.1-0.8-1.9-1.8-2.5-3s-0.9-2.6-0.9-4
		c0-1.8,0.4-3.4,1.3-4.8c0.9-1.4,2-2.5,3.5-3.2c1.5-0.8,3.1-1.1,4.9-1.1c1.2,0,2.5,0.2,3.7,0.6h9.4c0.2,0,0.3,0.1,0.5,0.2
		s0.2,0.3,0.2,0.5v2.2c0,0.2-0.1,0.3-0.2,0.5c-0.1,0.1-0.3,0.2-0.5,0.2h-4.8c1,1.4,1.5,3.1,1.5,5c0,1.8-0.4,3.4-1.3,4.8
		c-0.9,1.4-2,2.5-3.5,3.2c-1.5,0.8-3.1,1.1-4.9,1.1c-1.2,0-2.4-0.2-3.7-0.6c-0.7,0.3-1.2,0.7-1.6,1.2c-0.4,0.5-0.6,1-0.6,1.6
		c0,0.7,0.3,1.3,0.9,1.6c0.5,0.3,1.2,0.5,2.2,0.6s2.5,0.3,4.6,0.5l1.8,0.1c1.5,0.1,2.8,0.3,3.9,0.6c1.1,0.3,2,0.8,2.8,1.7
		c0.8,0.8,1.2,2,1.2,3.6c0,2.6-1.1,4.6-3.2,5.9c-2.1,1.4-4.8,2-8.2,2C175.8,79.3,173.4,78.7,171.5,77.6 M184.6,75
		c1.4-0.7,2.1-1.8,2.1-3.3c0-0.8-0.2-1.3-0.6-1.7c-0.4-0.4-0.9-0.6-1.6-0.8c-0.7-0.1-1.7-0.3-3-0.4c-0.3,0-1-0.1-2-0.2
		c-1.1-0.1-2.2-0.2-3.5-0.4c-0.8-0.1-1.4-0.2-1.9-0.3c-0.6,0.5-1.1,1.1-1.5,1.7c-0.4,0.7-0.5,1.4-0.5,2.1c0,1.4,0.7,2.5,2,3.1
		s3,1,5.1,1C181.5,76,183.2,75.7,184.6,75 M183.1,55.6c1.1-1.1,1.7-2.5,1.7-4.2s-0.6-3.1-1.7-4.2c-1.1-1.1-2.6-1.6-4.5-1.6
		s-3.3,0.5-4.5,1.6c-1.1,1.1-1.7,2.5-1.7,4.2s0.6,3.1,1.7,4.2c1.1,1.1,2.6,1.6,4.5,1.6C180.5,57.2,182,56.6,183.1,55.6"/>
	<path class="st0" d="M201.2,68.2c-1.6-0.9-2.8-2.2-3.7-3.8c-0.9-1.6-1.4-3.3-1.4-5.2v-6.8c0-1.9,0.5-3.6,1.4-5.2
		c0.9-1.6,2.2-2.8,3.7-3.8c1.6-0.9,3.3-1.4,5.1-1.4c1.9,0,3.6,0.5,5.1,1.4c1.6,0.9,2.8,2.2,3.7,3.8s1.4,3.3,1.4,5.2v3.2
		c0,0.5-0.2,0.9-0.5,1.2s-0.7,0.5-1.2,0.5h-15.1v2.1c0,1.2,0.3,2.3,0.9,3.3c0.6,1,1.4,1.8,2.4,2.4s2.1,0.9,3.3,0.9h6.8
		c0.2,0,0.3,0.1,0.5,0.2c0.1,0.1,0.2,0.3,0.2,0.5v2.2c0,0.2-0.1,0.3-0.2,0.5c-0.1,0.1-0.3,0.2-0.5,0.2h-6.8
		C204.5,69.6,202.8,69.1,201.2,68.2 M212.9,54v-1.7c0-1.2-0.3-2.3-0.9-3.3c-0.6-1-1.4-1.8-2.4-2.4c-1-0.6-2.1-0.9-3.3-0.9
		S204,46,203,46.6s-1.8,1.4-2.4,2.4c-0.6,1-0.9,2.1-0.9,3.3V54H212.9z"/>
	<path class="st1" d="M223.3,69.3c-0.2-0.2-0.3-0.4-0.3-0.7V37.8c0-0.6,0.2-1,0.6-1.4c0.4-0.4,0.9-0.6,1.4-0.6h8.4
		c2,0,3.8,0.5,5.5,1.5s3,2.3,4,4s1.5,3.5,1.5,5.4c0,2-0.5,3.8-1.5,5.5s-2.3,3-4,4s-3.5,1.5-5.5,1.5h-4.7v11c0,0.3-0.1,0.5-0.3,0.7
		s-0.4,0.3-0.7,0.3H224C223.7,69.6,223.5,69.5,223.3,69.3 M233.2,52.1c1.5,0,2.8-0.5,3.9-1.6c1.1-1.1,1.6-2.4,1.6-3.9
		s-0.5-2.8-1.6-3.8c-1.1-1.1-2.4-1.6-3.9-1.6h-4.4v10.9H233.2z"/>
	<path class="st1" d="M250.3,67.9c-1.7-1.5-2.5-3.4-2.5-5.8c0-2.2,0.8-4,2.3-5.4s3.6-2.4,6.4-2.8c0.7-0.1,1.4-0.2,2-0.3
		c2.2-0.3,3.5-0.4,4-0.6c1.2-0.2,1.7-0.9,1.7-2c0-1.2-0.5-2.1-1.4-2.8c-1-0.7-2.2-1.1-3.6-1.1c-2.5,0-4.4,0.9-5.6,2.8
		c-0.3,0.4-0.6,0.6-0.9,0.6c-0.3,0-0.5-0.1-0.6-0.2l-2.6-1.8c-0.3-0.2-0.4-0.5-0.4-0.8c0-0.1,0-0.2,0.1-0.4c0.9-1.7,2.3-3.1,4.1-4
		c1.8-1,3.8-1.4,6.1-1.4c2.1,0,3.9,0.4,5.5,1.2s2.8,1.9,3.7,3.4c0.9,1.4,1.3,3.1,1.3,5v17.1c0,0.3-0.1,0.5-0.3,0.7
		c-0.2,0.2-0.4,0.3-0.7,0.3h-3.2c-0.3,0-0.5-0.1-0.7-0.3c-0.2-0.2-0.3-0.4-0.3-0.7v-1.8c-2.2,2.3-4.8,3.4-7.7,3.4
		C254.1,70.2,252,69.4,250.3,67.9 M260.7,64.2c1.1-0.6,2-1.5,2.7-2.5s1-2.1,1-3.2v-0.9l-3.5,0.5c-1.9,0.2-3.2,0.4-3.7,0.5
		c-2.6,0.5-3.9,1.6-3.9,3.4c0,1,0.4,1.8,1.1,2.3c0.7,0.6,1.7,0.9,2.9,0.9C258.4,65.1,259.6,64.8,260.7,64.2"/>
	<path class="st1" d="M278.9,69c-0.4-0.4-0.6-0.9-0.6-1.4V38.9H274c-0.3,0-0.5-0.1-0.7-0.3s-0.3-0.4-0.3-0.7v-3.5
		c0-0.3,0.1-0.5,0.3-0.7c0.2-0.2,0.4-0.3,0.7-0.3h7.9c0.6,0,1,0.2,1.4,0.6c0.4,0.4,0.6,0.9,0.6,1.4v28.7h4.3c0.3,0,0.5,0.1,0.7,0.3
		c0.2,0.2,0.3,0.4,0.3,0.7v3.5c0,0.3-0.1,0.5-0.3,0.7c-0.2,0.2-0.4,0.3-0.7,0.3h-7.9C279.8,69.6,279.3,69.4,278.9,69"/>
	<path class="st2" d="M43.2,41.4L41.7,44c-0.2,0.4-0.1,0.8,0.2,1.1c2.7,2.7,4.3,6.6,3.7,10.8c-0.8,5.6-5.4,10.1-11,10.8
		c-7.6,0.9-14.1-5.1-14.1-12.6c0-3.8,1.6-7.1,4.2-9.4c0.3-0.3,0.4-0.7,0.2-1.1L23.4,41c-0.3-0.5-0.9-0.6-1.3-0.3
		c-4.4,3.6-7,9.4-6.1,15.7c1,7.7,7.4,13.9,15.1,14.8c10.4,1.2,19.3-7,19.3-17.2c0-5.1-2.3-9.7-5.8-12.9C44.2,40.8,43.5,41,43.2,41.4
		"/>
	<path class="st1" d="M47.8,33.2l-1.7,3c-0.2,0.4-0.1,0.9,0.2,1.1C52,41.7,55.5,49,54.4,57c-1.2,9.5-9,17.1-18.6,18.2
		c-12.8,1.4-23.6-8.5-23.6-21c0-6.8,3.2-12.9,8.3-16.8c0.4-0.3,0.5-0.8,0.2-1.1l-1.7-3c-0.3-0.5-0.9-0.6-1.3-0.3
		c-7,5.2-11.4,13.8-10.6,23.4C8.3,69.3,19,79.7,32,80.4c15.2,0.8,27.8-11.3,27.8-26.3c0-8.7-4.2-16.4-10.7-21.2
		C48.7,32.6,48.1,32.8,47.8,33.2"/>
	<path class="st0" d="M41.5,27.7l-4.6,2.4c-0.2,0.1-0.5,0-0.5-0.3l-0.2-26c0-0.4-0.5-0.4-0.6-0.1L25,36.5c-0.1,0.3,0.2,0.5,0.4,0.4
		l4.6-2.4c0.2-0.1,0.5,0,0.5,0.3l0.3,26.1c0,0.4,0.5,0.4,0.6,0.1L42,28.1C42,27.8,41.7,27.5,41.5,27.7"/>
	<path class="st3" d="M69.3,93.3c-0.8-0.5-1.4-1.1-1.9-1.9s-0.7-1.7-0.7-2.6c0-1,0.2-1.8,0.7-2.6c0.5-0.8,1.1-1.4,1.9-1.9
		s1.7-0.7,2.6-0.7c1,0,1.8,0.2,2.6,0.7c0.8,0.5,1.4,1.1,1.9,1.9s0.7,1.7,0.7,2.6c0,1-0.2,1.8-0.7,2.6c-0.5,0.8-1.1,1.4-1.9,1.9
		C73.8,93.8,72.9,94,72,94C71,94,70.1,93.8,69.3,93.3 M74.1,92.3c0.6-0.4,1.1-0.9,1.5-1.5s0.6-1.3,0.6-2.1c0-0.8-0.2-1.5-0.6-2.1
		s-0.9-1.1-1.5-1.5s-1.3-0.6-2.1-0.6c-0.8,0-1.5,0.2-2.1,0.6s-1.1,0.9-1.5,1.5s-0.6,1.3-0.6,2.1c0,0.8,0.2,1.5,0.6,2.1
		s0.9,1.1,1.5,1.5s1.3,0.6,2.1,0.6C72.7,92.9,73.4,92.7,74.1,92.3 M70.9,91.4c-0.3-0.2-0.6-0.5-0.8-0.8c-0.2-0.3-0.3-0.7-0.3-1.1
		v-1.6c0-0.4,0.1-0.8,0.3-1.1c0.2-0.3,0.5-0.6,0.8-0.8c0.3-0.2,0.7-0.3,1.1-0.3c0.3,0,0.6,0,0.9,0.1s0.5,0.2,0.7,0.4
		c0.1,0.1,0.1,0.1,0.1,0.2l-0.1,0.2l-0.3,0.3L73.1,87l-0.2-0.1c-0.2-0.2-0.5-0.3-0.8-0.3s-0.6,0.1-0.8,0.3c-0.2,0.2-0.3,0.5-0.3,0.8
		v1.6c0,0.3,0.1,0.6,0.3,0.8c0.2,0.2,0.5,0.3,0.8,0.3s0.6-0.1,0.8-0.3l0.2-0.1l0.2,0.1l0.3,0.3c0.1,0.1,0.1,0.2,0.1,0.3l-0.1,0.2
		c-0.2,0.2-0.4,0.3-0.7,0.4c-0.3,0.1-0.6,0.2-0.9,0.2C71.6,91.7,71.2,91.6,70.9,91.4"/>
	<path class="st3" d="M87.8,83.9h-1c-0.1,0-0.2,0-0.3,0.1c-0.1,0.1-0.1,0.2-0.1,0.3v3.2H83v-3.2c0-0.1,0-0.2-0.1-0.3
		c-0.1-0.1-0.2-0.1-0.3-0.1h-1c-0.1,0-0.2,0-0.3,0.1c-0.1,0.1-0.1,0.2-0.1,0.3v8.5c0,0.1,0,0.2,0.1,0.3c0.1,0.1,0.2,0.1,0.3,0.1h1
		c0.1,0,0.2,0,0.3-0.1C83,93,83,92.9,83,92.8v-3.4h3.3v3.4c0,0.1,0,0.2,0.1,0.3c0.1,0.1,0.2,0.1,0.3,0.1h1c0.1,0,0.2,0,0.3-0.1
		c0.1-0.1,0.1-0.2,0.1-0.3v-8.5c0-0.1,0-0.2-0.1-0.3C88,84,87.9,83.9,87.8,83.9"/>
	<path class="st3" d="M94.9,84.4c-0.5-0.3-1-0.4-1.6-0.4h-2.2c-0.2,0-0.4,0.1-0.5,0.2s-0.2,0.3-0.2,0.5v8.2c0,0.1,0,0.2,0.1,0.3
		c0.1,0.1,0.2,0.1,0.3,0.1h1c0.1,0,0.2,0,0.3-0.1c0.1-0.1,0.1-0.2,0.1-0.3v-2.7h1.1c0.6,0,1.1-0.1,1.6-0.4s0.9-0.7,1.1-1.1
		c0.3-0.5,0.4-1,0.4-1.6S96.3,86,96,85.6C95.8,85,95.4,84.6,94.9,84.4 M94.6,87c0,0.4-0.1,0.6-0.4,0.9c-0.2,0.2-0.5,0.4-0.9,0.4h-1
		v-2.5h1c0.4,0,0.6,0.1,0.9,0.4C94.4,86.4,94.6,86.7,94.6,87"/>
	<path class="st3" d="M104.2,91.6l-0.6-0.6c-0.2-0.2-0.5-0.2-0.7,0c-0.4,0.4-0.8,0.6-1.4,0.6c-0.3,0-0.5-0.1-0.8-0.2
		c-0.2-0.2-0.4-0.4-0.6-0.6c-0.1-0.3-0.2-0.5-0.2-0.8v-2.7c0-0.3,0.1-0.6,0.2-0.8c0.1-0.3,0.3-0.5,0.6-0.6c0.2-0.1,0.5-0.2,0.8-0.2
		c0.6,0,1,0.2,1.4,0.6c0.1,0.1,0.3,0.2,0.4,0.2s0.2-0.1,0.3-0.2l0.6-0.6c0.1-0.1,0.1-0.2,0.1-0.4c0-0.1,0-0.2-0.1-0.3
		c-0.3-0.4-0.7-0.7-1.2-0.9c-0.5-0.2-1-0.3-1.5-0.3c-0.6,0-1.2,0.2-1.7,0.5s-0.9,0.7-1.3,1.3c-0.3,0.5-0.5,1.1-0.5,1.8V90
		c0,0.6,0.2,1.2,0.5,1.8c0.3,0.5,0.7,1,1.3,1.3c0.5,0.3,1.1,0.5,1.7,0.5c0.5,0,1.1-0.1,1.5-0.3c0.5-0.2,0.9-0.5,1.2-0.9
		c0.1-0.1,0.1-0.2,0.1-0.3C104.4,91.8,104.3,91.7,104.2,91.6"/>
	<polygon class="st3" points="110,93.1 109.9,92.9 109.9,84.4 110,84.2 110.2,84.1 111.2,84.1 111.4,84.2 111.5,84.4 111.5,87.8 
		115.2,87.8 115.2,84.4 115.3,84.2 115.5,84.1 116.5,84.1 116.7,84.2 116.7,84.4 116.7,92.9 116.7,93.1 116.5,93.2 115.5,93.2 
		115.3,93.1 115.2,92.9 115.2,89.3 111.5,89.3 111.5,92.9 111.4,93.1 111.2,93.2 110.2,93.2 	"/>
	<path class="st3" d="M120.4,93c-0.1-0.1-0.2-0.3-0.2-0.4v-5.2h-1l-0.2-0.1l-0.1-0.2v-0.9L119,86l0.2-0.1h1.9c0.2,0,0.3,0.1,0.4,0.2
		s0.2,0.3,0.2,0.4v5.2h1l0.2,0.1L123,92v0.9l-0.1,0.2l-0.2,0.1h-1.9C120.6,93.2,120.5,93.1,120.4,93 M120.3,85l-0.1-0.2v-1.4
		l0.1-0.2l0.2-0.1h0.9l0.2,0.1l0.1,0.2v1.4l-0.1,0.2l-0.2,0.1h-0.9L120.3,85z"/>
	<path class="st3" d="M125.3,95.3c-0.5-0.3-0.7-0.8-0.7-1.4c0-0.5,0.2-0.9,0.5-1.2c-0.3-0.2-0.5-0.6-0.5-1c0-0.3,0.1-0.6,0.2-0.8
		c0.1-0.3,0.3-0.5,0.6-0.7c-0.3-0.2-0.5-0.5-0.6-0.8s-0.2-0.7-0.2-1.1c0-0.5,0.1-1,0.4-1.4c0.2-0.4,0.6-0.7,1-0.9
		c0.4-0.2,0.9-0.3,1.4-0.3c0.4,0,0.7,0.1,1.1,0.2h2.5V86l0.1,0.2V87l-0.1,0.2l-0.2,0.1h-1c0.1,0.3,0.2,0.7,0.2,1.1
		c0,0.5-0.1,1-0.4,1.3c-0.2,0.4-0.6,0.7-1,0.9c-0.4,0.2-0.9,0.3-1.4,0.3c-0.4,0-0.8-0.1-1.1-0.2c-0.2,0.2-0.3,0.4-0.3,0.6
		s0.1,0.3,0.2,0.3c0.1,0.1,0.3,0.1,0.6,0.1c0.3,0,0.7,0,1,0h0.6c0.7,0,1.3,0.1,1.7,0.4c0.4,0.2,0.7,0.7,0.7,1.3
		c0,0.8-0.3,1.3-0.9,1.7c-0.6,0.4-1.4,0.6-2.4,0.6C126.5,95.8,125.8,95.6,125.3,95.3 M129.1,93.7c0-0.2-0.1-0.4-0.2-0.4
		c-0.2-0.1-0.4-0.1-0.7-0.1H127c-0.3,0-0.6,0-0.8,0c-0.1,0.2-0.1,0.3-0.1,0.5c0,0.3,0.1,0.5,0.4,0.6c0.2,0.1,0.6,0.2,1.1,0.2
		C128.5,94.5,129.1,94.2,129.1,93.7 M128.3,89.3c0.2-0.2,0.3-0.5,0.3-0.9s-0.1-0.7-0.3-0.9c-0.2-0.2-0.5-0.4-0.9-0.4
		s-0.7,0.1-0.9,0.4c-0.2,0.2-0.3,0.5-0.3,0.9s0.1,0.7,0.3,0.9c0.2,0.2,0.5,0.3,0.9,0.3C127.7,89.6,128,89.5,128.3,89.3"/>
	<path class="st3" d="M133,93.1l-0.1-0.2v-9.1l0.1-0.2l0.2-0.1h1l0.2,0.1l0.1,0.2v2.8c0.2-0.2,0.5-0.4,0.8-0.6
		c0.3-0.1,0.6-0.2,1-0.2c0.5,0,1,0.1,1.4,0.3c0.4,0.2,0.7,0.5,0.9,0.9s0.3,0.9,0.3,1.4v4.5l-0.1,0.2l-0.2,0.1h-1l-0.2-0.1l-0.1-0.2
		v-4.3c0-0.4-0.1-0.8-0.3-1s-0.5-0.4-1-0.4s-0.9,0.2-1.2,0.5s-0.4,0.8-0.4,1.3v3.9l-0.1,0.2l-0.2,0.1h-1L133,93.1z"/>
	<path class="st3" d="M144.9,93.1l-0.1-0.2v-8.2c0-0.2,0.1-0.3,0.2-0.4c0.1-0.1,0.2-0.2,0.4-0.2h2.2c0.5,0,1,0.1,1.5,0.4
		c0.4,0.3,0.8,0.6,1.1,1.1c0.3,0.4,0.4,0.9,0.4,1.4s-0.1,1-0.4,1.5c-0.3,0.4-0.6,0.8-1.1,1.1c-0.4,0.3-0.9,0.4-1.5,0.4h-1.2v2.9
		l-0.1,0.2l-0.2,0.1h-1L144.9,93.1z M147.5,88.5c0.4,0,0.7-0.1,1-0.4s0.4-0.6,0.4-1s-0.1-0.7-0.4-1c-0.3-0.3-0.6-0.4-1-0.4h-1.2v2.9
		L147.5,88.5L147.5,88.5z"/>
	<path class="st3" d="M153.8,92.9c-0.5-0.3-0.8-0.6-1.1-1.1s-0.4-0.9-0.4-1.5v-1.7c0-0.5,0.1-1,0.4-1.5c0.3-0.5,0.6-0.8,1.1-1.1
		c0.5-0.3,1-0.4,1.5-0.4s1,0.1,1.5,0.4s0.8,0.6,1.1,1.1s0.4,0.9,0.4,1.5v1.7c0,0.5-0.1,1-0.4,1.5c-0.3,0.5-0.6,0.8-1.1,1.1
		c-0.5,0.3-1,0.4-1.5,0.4C154.7,93.3,154.2,93.2,153.8,92.9 M156.3,91.4c0.3-0.3,0.4-0.6,0.4-1.1v-1.7c0-0.4-0.1-0.8-0.4-1.1
		c-0.3-0.3-0.6-0.4-1.1-0.4c-0.4,0-0.8,0.1-1.1,0.4s-0.4,0.6-0.4,1.1v1.7c0,0.4,0.1,0.8,0.4,1.1c0.3,0.3,0.6,0.4,1.1,0.4
		C155.7,91.9,156,91.7,156.3,91.4"/>
	<path class="st3" d="M162.4,93.2c-0.2,0-0.3-0.1-0.4-0.3l-2.2-6.6v-0.1l0.1-0.2c0.1-0.1,0.1-0.1,0.2-0.1h0.9l0.2,0.1l0.1,0.2
		l1.6,5.1l1.4-5.1l0.1-0.2l0.2-0.1h0.9l0.2,0.1l0.1,0.2l1.5,5.1l1.5-5.1L169,86l0.2-0.1h0.8c0.1,0,0.2,0,0.2,0.1l0.1,0.2v0.1
		l-2.1,6.6l-0.1,0.2c-0.1,0-0.2,0.1-0.2,0.1h-1c-0.1,0-0.2,0-0.2-0.1l-0.1-0.2l-1.4-4.8l-1.3,4.8l-0.1,0.2c-0.1,0-0.2,0.1-0.2,0.1
		L162.4,93.2z"/>
	<path class="st3" d="M173.3,92.7c-0.5-0.3-0.8-0.6-1.1-1.1s-0.4-1-0.4-1.5v-1.4c0-0.5,0.1-1,0.4-1.5c0.3-0.5,0.6-0.8,1.1-1.1
		c0.5-0.3,1-0.4,1.5-0.4s1,0.1,1.5,0.4s0.8,0.6,1.1,1.1s0.4,1,0.4,1.5v0.8c0,0.2-0.1,0.3-0.2,0.4c-0.1,0.1-0.2,0.2-0.4,0.2h-3.9v0.1
		c0,0.4,0.1,0.8,0.4,1.1c0.3,0.3,0.6,0.4,1.1,0.4h2l0.2,0.1l0.1,0.2v0.9l-0.1,0.2l-0.2,0.1h-2C174.3,93.2,173.8,93,173.3,92.7
		 M176.3,88.8L176.3,88.8c0-0.5-0.1-0.9-0.4-1.2c-0.3-0.3-0.6-0.4-1-0.4s-0.8,0.1-1.1,0.4s-0.4,0.6-0.4,1.1v0.1H176.3z"/>
	<path class="st3" d="M179.7,93.1l-0.1-0.2V92l0.1-0.2l0.2-0.1h1v-4.3h-1.1l-0.2-0.1l-0.1-0.2v-0.9l0.1-0.2l0.2-0.1h2
		c0.2,0,0.3,0.1,0.4,0.2c0.1,0.1,0.2,0.2,0.2,0.4V87l0.7-0.5c0.3-0.2,0.5-0.3,0.7-0.4s0.4-0.1,0.7-0.1h0.4l0.2,0.1l0.1,0.2v1
		l-0.1,0.2l-0.2,0.1h-0.3c-0.2,0-0.4,0-0.6,0.1s-0.4,0.2-0.7,0.5l-0.7,0.6V92h1.2l0.2,0.1l0.1,0.2v0.9l-0.1,0.2l-0.2,0.1h-3.7
		L179.7,93.1z"/>
	<path class="st3" d="M191.8,92.9c-0.5-0.3-0.9-0.7-1.2-1.2s-0.4-1.1-0.4-1.7v-2.7c0-0.6,0.1-1.2,0.4-1.7c0.3-0.5,0.7-0.9,1.2-1.2
		c0.5-0.3,1-0.4,1.6-0.4c0.5,0,1,0.1,1.4,0.3c0.4,0.2,0.8,0.5,1.1,0.8l0.1,0.2l-0.1,0.3l-0.6,0.6l-0.2,0.1l-0.2-0.1
		c-0.4-0.4-0.9-0.7-1.5-0.7c-0.3,0-0.6,0.1-0.9,0.3c-0.3,0.2-0.5,0.4-0.6,0.7c-0.2,0.3-0.2,0.6-0.2,0.9V90c0,0.3,0.1,0.6,0.2,0.9
		c0.2,0.3,0.4,0.5,0.6,0.7c0.3,0.2,0.6,0.3,0.9,0.3c0.6,0,1.1-0.2,1.5-0.7l0.2-0.1l0.2,0.1l0.6,0.6c0.1,0.1,0.1,0.2,0.1,0.3
		l-0.1,0.2c-0.3,0.4-0.7,0.6-1.1,0.8c-0.4,0.2-0.9,0.3-1.4,0.3C192.8,93.3,192.3,93.2,191.8,92.9"/>
	<path class="st3" d="M198.2,93.1l-0.1-0.2v-9.1l0.1-0.2l0.2-0.1h1l0.2,0.1l0.1,0.2v2.8c0.2-0.2,0.5-0.4,0.8-0.6
		c0.3-0.1,0.6-0.2,1-0.2c0.5,0,1,0.1,1.4,0.3c0.4,0.2,0.7,0.5,0.9,0.9s0.3,0.9,0.3,1.4v4.5l-0.1,0.2l-0.2,0.1h-1l-0.2-0.1l-0.1-0.2
		v-4.3c0-0.4-0.1-0.8-0.3-1s-0.5-0.4-1-0.4s-0.9,0.2-1.2,0.5s-0.4,0.8-0.4,1.3v3.9l-0.1,0.2l-0.2,0.1h-1L198.2,93.1z"/>
	<path class="st3" d="M206.6,92.7c-0.4-0.4-0.7-0.9-0.7-1.6c0-0.6,0.2-1.1,0.6-1.4c0.4-0.4,1-0.6,1.7-0.8c0.2,0,0.4,0,0.5-0.1
		c0.6-0.1,0.9-0.1,1.1-0.2c0.3,0,0.5-0.2,0.5-0.5s-0.1-0.6-0.4-0.8c-0.3-0.2-0.6-0.3-1-0.3c-0.7,0-1.2,0.2-1.5,0.7
		c-0.1,0.1-0.1,0.2-0.2,0.2l-0.2-0.1l-0.7-0.5c-0.1-0.1-0.1-0.1-0.1-0.2V87c0.2-0.5,0.6-0.8,1.1-1.1c0.5-0.3,1-0.4,1.6-0.4
		s1,0.1,1.5,0.3c0.4,0.2,0.7,0.5,1,0.9c0.2,0.4,0.3,0.8,0.3,1.3v4.6l-0.1,0.2l-0.2,0.1h-0.9l-0.2-0.1l-0.1-0.2v-0.5
		c-0.6,0.6-1.3,0.9-2.1,0.9C207.6,93.3,207.1,93.1,206.6,92.7 M209.4,91.7c0.3-0.2,0.5-0.4,0.7-0.7s0.3-0.6,0.3-0.9v-0.3l-0.9,0.1
		c-0.5,0.1-0.8,0.1-1,0.1c-0.7,0.1-1,0.4-1,0.9c0,0.3,0.1,0.5,0.3,0.6c0.2,0.2,0.4,0.2,0.8,0.2C208.8,92,209.1,91.9,209.4,91.7"/>
	<path class="st3" d="M213.9,93.1l-0.1-0.2V92l0.1-0.2l0.2-0.1h1v-4.3H214l-0.2-0.1l-0.1-0.2v-0.9l0.1-0.2l0.2-0.1h2
		c0.2,0,0.3,0.1,0.4,0.2c0.1,0.1,0.2,0.2,0.2,0.4V87l0.7-0.5c0.3-0.2,0.5-0.3,0.7-0.4s0.4-0.1,0.7-0.1h0.4l0.2,0.1l0.1,0.2v1
		l-0.1,0.2l-0.2,0.1h-0.3c-0.2,0-0.4,0-0.6,0.1s-0.4,0.2-0.7,0.5l-0.7,0.6V92h1.2l0.2,0.1L218,92v0.9l-0.1,0.2l-0.2,0.1H214
		L213.9,93.1z"/>
	<path class="st3" d="M221.3,95.3c-0.5-0.3-0.7-0.8-0.7-1.4c0-0.5,0.2-0.9,0.5-1.2c-0.3-0.2-0.5-0.6-0.5-1c0-0.3,0.1-0.6,0.2-0.8
		c0.1-0.3,0.3-0.5,0.6-0.7c-0.3-0.2-0.5-0.5-0.6-0.8s-0.2-0.7-0.2-1.1c0-0.5,0.1-1,0.4-1.4c0.2-0.4,0.6-0.7,1-0.9
		c0.4-0.2,0.9-0.3,1.4-0.3c0.4,0,0.7,0.1,1.1,0.2h2.5V86l0.1,0.2V87l-0.1,0.2l-0.2,0.1h-1c0.1,0.3,0.2,0.7,0.2,1.1
		c0,0.5-0.1,1-0.4,1.3c-0.2,0.4-0.6,0.7-1,0.9c-0.4,0.2-0.9,0.3-1.4,0.3c-0.4,0-0.8-0.1-1.1-0.2c-0.2,0.2-0.3,0.4-0.3,0.6
		s0.1,0.3,0.2,0.3c0.1,0.1,0.3,0.1,0.6,0.1s0.7,0,1,0h0.6c0.7,0,1.3,0.1,1.7,0.4c0.4,0.2,0.7,0.7,0.7,1.3c0,0.8-0.3,1.3-0.9,1.7
		c-0.6,0.4-1.4,0.6-2.4,0.6C222.5,95.8,221.8,95.6,221.3,95.3 M225.1,93.7c0-0.2-0.1-0.4-0.2-0.4c-0.2-0.1-0.4-0.1-0.7-0.1H223
		c-0.3,0-0.6,0-0.8,0c-0.1,0.2-0.1,0.3-0.1,0.5c0,0.3,0.1,0.5,0.4,0.6c0.2,0.1,0.6,0.2,1.1,0.2C224.5,94.5,225.1,94.2,225.1,93.7
		 M224.3,89.3c0.2-0.2,0.3-0.5,0.3-0.9s-0.1-0.7-0.3-0.9c-0.2-0.2-0.5-0.4-0.9-0.4s-0.7,0.1-0.9,0.4c-0.2,0.2-0.3,0.5-0.3,0.9
		s0.1,0.7,0.3,0.9c0.2,0.2,0.5,0.3,0.9,0.3C223.7,89.6,224,89.5,224.3,89.3"/>
	<path class="st3" d="M230,93c-0.1-0.1-0.2-0.3-0.2-0.4v-5.2h-1l-0.2-0.1l-0.1-0.2v-0.9l0.1-0.2l0.2-0.1h1.9c0.2,0,0.3,0.1,0.4,0.2
		c0.1,0.1,0.2,0.3,0.2,0.4v5.2h1l0.2,0.1l0.1,0.2v0.9l-0.1,0.2l-0.2,0.1h-1.9C230.3,93.2,230.1,93.1,230,93 M230,85l-0.1-0.2v-1.4
		l0.1-0.2l0.2-0.1h0.9l0.2,0.1l0.1,0.2v1.4l-0.1,0.2l-0.2,0.1h-0.9L230,85z"/>
	<path class="st3" d="M234.6,93.1l-0.1-0.2v-6.7l0.1-0.2l0.2-0.1h1L236,86l0.1,0.2v0.6c0.2-0.3,0.5-0.6,0.8-0.7
		c0.3-0.2,0.7-0.3,1.1-0.3c0.5,0,0.9,0.1,1.3,0.3c0.4,0.2,0.7,0.5,0.9,0.9s0.3,0.9,0.3,1.4v4.5l-0.1,0.2l-0.2,0.1h-1l-0.2-0.1
		l-0.1-0.2v-4.3c0-0.4-0.1-0.8-0.3-1s-0.5-0.4-1-0.4s-0.9,0.2-1.2,0.5S236,88.5,236,89v3.9l-0.1,0.2l-0.2,0.1L234.6,93.1L234.6,93.1
		z"/>
	<path class="st3" d="M243.3,95.3c-0.5-0.3-0.7-0.8-0.7-1.4c0-0.5,0.2-0.9,0.5-1.2c-0.3-0.2-0.5-0.6-0.5-1c0-0.3,0.1-0.6,0.2-0.8
		c0.1-0.3,0.3-0.5,0.6-0.7c-0.3-0.2-0.5-0.5-0.6-0.8s-0.2-0.7-0.2-1.1c0-0.5,0.1-1,0.4-1.4c0.2-0.4,0.6-0.7,1-0.9
		c0.4-0.2,0.9-0.3,1.4-0.3c0.4,0,0.7,0.1,1.1,0.2h2.5V86l0.1,0.2V87l-0.1,0.2l-0.2,0.1h-1c0.1,0.3,0.2,0.7,0.2,1.1
		c0,0.5-0.1,1-0.4,1.3c-0.2,0.4-0.6,0.7-1,0.9c-0.4,0.2-0.9,0.3-1.4,0.3c-0.4,0-0.8-0.1-1.1-0.2c-0.2,0.2-0.3,0.4-0.3,0.6
		s0.1,0.3,0.2,0.3c0.1,0.1,0.3,0.1,0.6,0.1s0.7,0,1,0h0.6c0.7,0,1.3,0.1,1.7,0.4c0.4,0.2,0.7,0.7,0.7,1.3c0,0.8-0.3,1.3-0.9,1.7
		c-0.6,0.4-1.4,0.6-2.4,0.6C244.5,95.8,243.8,95.6,243.3,95.3 M247.1,93.7c0-0.2-0.1-0.4-0.2-0.4c-0.2-0.1-0.4-0.1-0.7-0.1H245
		c-0.3,0-0.6,0-0.8,0c-0.1,0.2-0.1,0.3-0.1,0.5c0,0.3,0.1,0.5,0.4,0.6c0.2,0.1,0.6,0.2,1.1,0.2C246.5,94.5,247.1,94.2,247.1,93.7
		 M246.2,89.3c0.2-0.2,0.3-0.5,0.3-0.9s-0.1-0.7-0.3-0.9c-0.2-0.2-0.5-0.4-0.9-0.4s-0.7,0.1-0.9,0.4c-0.2,0.2-0.3,0.5-0.3,0.9
		s0.1,0.7,0.3,0.9c0.2,0.2,0.5,0.3,0.9,0.3C245.7,89.6,246,89.5,246.2,89.3"/>
	<path class="st3" d="M255.9,92.9c-0.5-0.3-0.9-0.7-1.2-1.2s-0.4-1.1-0.4-1.7v-2.7c0-0.6,0.1-1.2,0.4-1.7c0.3-0.5,0.7-0.9,1.2-1.2
		c0.5-0.3,1.1-0.4,1.7-0.4c0.5,0,1,0.1,1.5,0.3c0.5,0.2,0.8,0.5,1.2,0.8l0.1,0.2l-0.1,0.3l-0.6,0.6l-0.2,0.1l-0.2-0.1
		c-0.4-0.4-1-0.7-1.6-0.7c-0.3,0-0.6,0.1-0.9,0.3c-0.3,0.2-0.5,0.4-0.7,0.7c-0.2,0.3-0.2,0.6-0.2,0.9V90c0,0.3,0.1,0.6,0.2,0.9
		c0.2,0.3,0.4,0.5,0.7,0.7c0.3,0.2,0.6,0.3,0.9,0.3s0.6-0.1,0.9-0.2c0.3-0.2,0.5-0.4,0.7-0.7c0.2-0.3,0.2-0.6,0.2-0.9v-0.6h-1.7
		l-0.2-0.1l-0.1-0.2v-0.9l0.1-0.2l0.2-0.1h2.7c0.2,0,0.3,0.1,0.4,0.2s0.2,0.2,0.2,0.4V90c0,0.6-0.1,1.2-0.4,1.7s-0.7,0.9-1.2,1.2
		c-0.5,0.3-1.1,0.4-1.7,0.4C257,93.3,256.4,93.2,255.9,92.9"/>
	<path class="st3" d="M263.1,93.1l-0.1-0.2v-6.7l0.1-0.2l0.2-0.1h1l0.2,0.1l0.1,0.2v0.7c0.2-0.4,0.5-0.6,0.9-0.8
		c0.3-0.2,0.7-0.3,1.1-0.3c0.5,0,0.9,0.1,1.2,0.3c0.4,0.2,0.6,0.5,0.9,0.9c0.2-0.4,0.5-0.7,0.9-0.9c0.4-0.2,0.8-0.3,1.3-0.3
		c0.7,0,1.3,0.2,1.7,0.7c0.4,0.5,0.6,1.1,0.6,1.9v4.5l-0.1,0.2l-0.2,0.1h-1l-0.2-0.1l-0.1-0.2v-4.3c0-0.4-0.1-0.8-0.3-1
		c-0.2-0.2-0.5-0.4-0.9-0.4c-0.5,0-0.9,0.2-1.2,0.5c-0.3,0.3-0.4,0.8-0.4,1.3v3.9l-0.1,0.2l-0.2,0.1h-1l-0.2-0.1l-0.1-0.2v-4.3
		c0-0.4-0.1-0.8-0.3-1c-0.2-0.2-0.5-0.4-0.9-0.4c-0.5,0-0.9,0.2-1.2,0.5c-0.3,0.3-0.4,0.8-0.4,1.3v3.9l-0.1,0.2l-0.2,0.1L263.1,93.1
		L263.1,93.1z"/>
	<path class="st3" d="M277.7,93.1c-0.3-0.2-0.6-0.4-0.8-0.7v0.5l-0.1,0.2l-0.2,0.1h-0.8l-0.2-0.1l-0.1-0.2v-9.1l0.1-0.2l0.2-0.1h1
		l0.2,0.1l0.1,0.2v2.8c0.2-0.3,0.5-0.5,0.8-0.6s0.6-0.2,0.9-0.2c0.5,0,1,0.1,1.4,0.4s0.8,0.6,1,1.1c0.3,0.4,0.4,0.9,0.4,1.4v1.8
		c0,0.5-0.1,1-0.4,1.4s-0.6,0.8-1,1.1c-0.4,0.3-0.9,0.4-1.4,0.4C278.3,93.3,278,93.2,277.7,93.1 M279.6,91.4
		c0.3-0.3,0.4-0.6,0.4-1.1v-1.7c0-0.4-0.1-0.8-0.4-1.1c-0.3-0.3-0.6-0.4-1.1-0.4c-0.4,0-0.8,0.1-1.1,0.4c-0.3,0.3-0.4,0.6-0.4,1.1
		v1.7c0,0.4,0.1,0.8,0.4,1.1c0.3,0.3,0.6,0.4,1.1,0.4C278.9,91.9,279.3,91.7,279.6,91.4"/>
	<polygon class="st3" points="283.8,93.1 283.7,92.9 283.7,84.4 283.8,84.2 284,84.1 285,84.1 285.2,84.2 285.3,84.4 285.3,87.8 
		289,87.8 289,84.4 289.1,84.2 289.3,84.1 290.3,84.1 290.5,84.2 290.6,84.4 290.6,92.9 290.5,93.1 290.3,93.2 289.3,93.2 
		289.1,93.1 289,92.9 289,89.3 285.3,89.3 285.3,92.9 285.2,93.1 285,93.2 284,93.2 	"/>
</g>
</svg>
