<?xml version="1.0" encoding="UTF-8"?>
<svg xmlns="http://www.w3.org/2000/svg" viewBox="0 0 2447.12 1006.22">
  <defs>
    <style>
      .cls-1 {
        fill: #05171d;
        stroke-width: 0px;
      }
    </style>
  </defs>
  <g id="DFKI_Logo" data-name="DFKI Logo">
    <path class="cls-1" d="m335.42,498.74h-2.38c-7.13,27.08-34.67,47.52-66.99,47.52-63.19,0-95.97-46.1-95.97-130.67s32.78-130.19,95.97-130.19c32.32,0,59.86,19.96,66.99,47.51h2.38v-143.97h70.32v351.61h-70.32v-41.81Zm0-46.09v-73.64c0-22.81-19.48-36.59-46.09-36.59s-46.09,20.43-46.09,51.8v43.24c0,31.36,19.48,51.79,46.09,51.79s46.09-13.78,46.09-36.58m140.62,87.9h70.32v-194.81h49.9v-54.64h-49.9v-47.51h49.9v-54.65h-45.61c-48.47,0-74.6,24.71-74.6,72.7v29.46h-35.16v54.64h35.16v194.81Zm151.18,0h70.32v-70.32l31.36-35.16,56.07,105.48h83.62l-92.65-153.95,83.15-95.5h-77.92l-49.89,59.39-30.89,46.1h-2.85v-207.65h-70.32v351.61Zm269.91,0h70.32v-249.45h-70.32v249.45Zm35.16-365.72c20.96,0,38.01,17.05,38.01,38.01s-17.05,38.01-38.01,38.01-38.01-17.05-38.01-38.01,17.06-38.01,38.01-38.01m0-4.75c-23.61,0-42.76,19.15-42.76,42.76s19.15,42.76,42.76,42.76,42.76-19.15,42.76-42.76-19.15-42.76-42.76-42.76m30.41,655.61h-60.82v-239.94h60.82v239.94Zm4.75-244.7h-70.32v249.45h70.32v-249.45Zm-131.65,194.81v-109.29c0-58.92-36.11-91.22-106.44-91.22-52.26,0-80.77,18.05-100.72,47.51l41.81,37.06c10.93-15.2,25.66-29.46,53.69-29.46,29.46,0,41.33,15.2,41.33,39.43v15.68h-39.42c-66.06,0-106.91,25.19-106.91,77.93,0,43.24,27.56,72.69,77.44,72.69,35.05,0,63.89-13.96,74.36-39.92h2.38c6.68,21,22.97,34.22,44.93,34.22h40.83v-54.64h-23.28Zm18.53,49.89h-36.08c-20.72,0-36.15-13.03-41.53-34.22h-8.8c-8.71,25.38-36.29,39.92-71.34,39.92-45.52,0-72.69-25.39-72.69-67.94,0-60.48,55.55-73.18,102.16-73.18h44.18v-20.43c0-28.91-15.94-44.19-46.09-44.19-28.04,0-43.84,13.77-54.39,27.23l-34.78-30.83c21.11-29.03,50.43-42.02,94.4-42.02,66.53,0,101.69,29.9,101.69,86.47v114.04h23.28v45.14Zm-84.11-100.25v-4.75h-38.96c-40.1,0-46.09,20.54-46.09,32.78v7.13c0,11.71,4.87,31.36,37.53,31.36,29.3,0,47.51-14.21,47.51-37.06v-29.46Zm-4.75,29.46c0,22.81-19.48,32.31-42.76,32.31-20.9,0-32.78-8.55-32.78-26.61v-7.13c0-18.05,14.25-28.03,41.34-28.03h34.21v29.46Z"/>
  </g>
  <g id="Bereich_IBM_Plex_Mono_Regular_Wortabstand_-200_" data-name="Bereich / IBM Plex Mono / Regular (Wortabstand -200)">
    <g>
      <path class="cls-1" d="m1072.47,395.42v-87.56h31.86c16.18,0,24.96,9.41,24.96,25.21s-8.78,25.21-24.96,25.21h-21.33v37.13h-10.54Zm10.54-46.29h21.07c8.78,0,14.05-4.64,14.05-12.8v-6.52c0-8.15-5.27-12.79-14.05-12.79h-21.07v32.11Z"/>
      <path class="cls-1" d="m1146.47,386.89h22.58v-75.77h-22.58v-8.53h32.62v84.3h22.58v8.53h-55.2v-8.53Z"/>
      <path class="cls-1" d="m1273.79,395.42c-7.78,0-10.79-4.52-11.54-10.54h-.63c-2.76,7.4-8.91,12.04-19.44,12.04-13.55,0-22.2-7.53-22.2-19.69s8.41-18.82,27.85-18.82h13.8v-6.4c0-9.41-5.65-14.3-15.43-14.3-8.66,0-13.92,3.64-17.31,9.53l-6.77-5.02c3.26-6.77,11.54-13.05,24.71-13.05,15.18,0,24.84,8.15,24.84,21.83v35.63h9.03v8.78h-6.9Zm-12.17-18.82v-10.66h-13.8c-11.92,0-17.31,3.51-17.31,9.78v2.63c0,6.65,5.14,10.16,13.42,10.16,10.29,0,17.69-5.27,17.69-11.92Z"/>
      <path class="cls-1" d="m1299.26,395.42v-64.73h10.04v10.54h.5c2.76-6.4,7.78-12.04,18.44-12.04,13.55,0,22.45,9.03,22.45,24.71v41.52h-10.04v-39.77c0-11.79-5.39-17.56-15.3-17.56-8.03,0-16.06,3.89-16.06,12.42v44.91h-10.04Z"/>
      <path class="cls-1" d="m1381.67,362.56v-10.54h36.38v10.54h-36.38Z"/>
      <path class="cls-1" d="m1448.52,307.87h29.73c14.93,0,24.08,8.91,24.08,22.58,0,10.41-5.65,16.31-13.67,18.82v.38c9.78,2.26,16.93,8.4,16.93,20.57,0,14.17-10.04,25.21-23.58,25.21h-33.49v-87.56Zm28.6,38.01c8.78,0,14.18-3.89,14.18-11.92v-4.89c0-8.03-5.39-12.04-14.18-12.04h-18.06v28.85h18.06Zm1.76,40.39c9.66,0,15.55-4.39,15.55-13.3v-5.14c0-8.78-5.9-13.3-15.55-13.3h-19.82v31.74h19.82Z"/>
      <path class="cls-1" d="m1574.84,395.42c-7.78,0-10.79-4.52-11.54-10.54h-.63c-2.76,7.4-8.91,12.04-19.44,12.04-13.55,0-22.2-7.53-22.2-19.69s8.41-18.82,27.85-18.82h13.8v-6.4c0-9.41-5.65-14.3-15.43-14.3-8.66,0-13.92,3.64-17.31,9.53l-6.77-5.02c3.26-6.77,11.54-13.05,24.71-13.05,15.18,0,24.84,8.15,24.84,21.83v35.63h9.03v8.78h-6.9Zm-12.17-18.82v-10.66h-13.8c-11.92,0-17.31,3.51-17.31,9.78v2.63c0,6.65,5.14,10.16,13.42,10.16,10.29,0,17.69-5.27,17.69-11.92Z"/>
      <path class="cls-1" d="m1596.41,384.26l6.77-5.9c6.15,6.52,13.17,10.16,23.46,10.16s17.19-3.51,17.19-11.16c0-6.77-5.52-8.53-11.42-9.41l-10.16-1.51c-9.16-1.38-22.2-3.89-22.2-17.94,0-12.92,11.04-19.32,26.09-19.32,11.67,0,20.2,3.89,26.34,10.41l-6.52,6.15c-3.01-3.64-8.78-8.15-20.2-8.15-10.16,0-15.81,3.64-15.81,10.29s5.64,8.53,11.42,9.41l10.16,1.5c9.28,1.38,22.2,3.89,22.2,17.94,0,12.79-10.79,20.2-27.35,20.2-13.55,0-23.21-5.02-29.98-12.67Z"/>
      <path class="cls-1" d="m1671.68,363.19c0-20.7,12.17-34,29.73-34s28.73,13.3,28.73,31.61v4.77h-47.92v3.01c0,11.42,7.65,19.69,19.82,19.69,8.66,0,15.18-4.26,18.57-11.29l7.4,5.02c-3.89,8.66-13.17,14.93-25.97,14.93-18.57,0-30.36-13.3-30.36-33.74Zm10.54-6.02v.88h37.13v-1.38c0-11.42-7.28-19.19-17.94-19.19s-19.19,8.4-19.19,19.69Z"/>
      <path class="cls-1" d="m1791.85,384.89h-.5c-4.14,7.9-10.91,12.04-19.95,12.04-15.81,0-25.34-12.67-25.34-33.87s9.53-33.87,25.34-33.87c9.03,0,15.81,4.14,19.95,12.04h.5v-38.64h10.04v92.83h-10.04v-10.54Zm0-10.16v-23.33c0-8.66-7.65-13.3-16.56-13.3-11.67,0-18.44,7.78-18.44,19.44v11.04c0,11.67,6.77,19.44,18.44,19.44,8.91,0,16.56-4.64,16.56-13.3Z"/>
      <path class="cls-1" d="m1083,540.42h-10.54v-87.56h31.86c16.18,0,24.96,9.41,24.96,25.21,0,14.05-7.65,23.08-21.58,24.46l22.33,37.88h-11.79l-21.33-37.38h-13.92v37.38Zm21.07-46.29c8.78,0,14.05-4.64,14.05-12.8v-6.52c0-8.15-5.27-12.79-14.05-12.79h-21.07v32.11h21.07Z"/>
      <path class="cls-1" d="m1144.72,508.06c0-20.57,11.16-33.87,29.35-33.87s29.35,13.3,29.35,33.87-11.16,33.87-29.35,33.87-29.35-13.3-29.35-33.87Zm48.04,4.64v-9.28c0-13.92-7.53-20.57-18.69-20.57s-18.69,6.65-18.69,20.57v9.28c0,13.92,7.53,20.57,18.69,20.57s18.69-6.65,18.69-20.57Z"/>
      <path class="cls-1" d="m1223.62,447.6h10.04v38.64h.5c4.14-7.9,10.91-12.04,19.95-12.04,15.81,0,25.34,12.67,25.34,33.87s-9.53,33.87-25.34,33.87c-9.03,0-15.81-4.14-19.95-12.04h-.5v10.54h-10.04v-92.83Zm45.03,65.98v-11.04c0-11.67-6.77-19.44-18.44-19.44-8.91,0-16.56,4.64-16.56,13.3v23.33c0,8.66,7.65,13.3,16.56,13.3,11.67,0,18.44-7.78,18.44-19.44Z"/>
      <path class="cls-1" d="m1295.24,508.06c0-20.57,11.16-33.87,29.35-33.87s29.35,13.3,29.35,33.87-11.16,33.87-29.35,33.87-29.35-13.3-29.35-33.87Zm48.04,4.64v-9.28c0-13.92-7.53-20.57-18.69-20.57s-18.69,6.65-18.69,20.57v9.28c0,13.92,7.53,20.57,18.69,20.57s18.69-6.65,18.69-20.57Z"/>
      <path class="cls-1" d="m1402.99,540.42c-9.79,0-14.3-6.15-14.3-14.8v-41.4h-21.58v-8.53h16.06c4.26,0,5.9-1.51,5.9-5.9v-16.94h9.66v22.83h29.48v8.53h-29.48v47.67h29.48v8.53h-25.21Z"/>
      <path class="cls-1" d="m1070.7,641.64c0-29.1,10.41-45.29,31.74-45.29,16.06,0,22.71,9.66,26.97,19.19l-9.03,4.14c-3.14-7.78-7.28-14.17-17.94-14.17-13.92,0-20.57,11.42-20.57,28.98v14.3c0,17.56,6.65,28.98,20.57,28.98,10.66,0,14.8-6.4,17.94-14.17l9.03,4.14c-4.27,9.53-10.91,19.19-26.97,19.19-21.33,0-31.74-16.18-31.74-45.28Z"/>
      <path class="cls-1" d="m1145.46,653.06c0-20.57,11.16-33.87,29.35-33.87s29.35,13.3,29.35,33.87-11.16,33.87-29.35,33.87-29.35-13.3-29.35-33.87Zm48.04,4.64v-9.28c0-13.92-7.53-20.57-18.69-20.57s-18.69,6.65-18.69,20.57v9.28c0,13.92,7.53,20.57,18.69,20.57s18.69-6.65,18.69-20.57Z"/>
      <path class="cls-1" d="m1224.73,685.42v-64.73h10.04v10.54h.5c2.76-6.4,7.78-12.04,18.44-12.04,13.55,0,22.45,9.03,22.45,24.71v41.52h-10.04v-39.77c0-11.79-5.39-17.56-15.3-17.56-8.03,0-16.06,3.89-16.06,12.42v44.91h-10.04Z"/>
      <path class="cls-1" d="m1328.47,685.42c-9.79,0-14.3-6.15-14.3-14.8v-41.4h-21.58v-8.53h16.06c4.26,0,5.9-1.51,5.9-5.9v-16.94h9.66v22.83h29.48v8.53h-29.48v47.67h29.48v8.53h-25.21Z"/>
      <path class="cls-1" d="m1372.62,676.89h18.94v-47.67h-18.94v-8.53h28.98v16.31h.63c2.51-8.53,8.28-16.31,21.83-16.31h9.03v10.04h-12.17c-12.67,0-19.32,8.15-19.32,18.19v27.97h20.2v8.53h-49.17v-8.53Z"/>
      <path class="cls-1" d="m1446.5,653.06c0-20.57,11.16-33.87,29.35-33.87s29.35,13.3,29.35,33.87-11.16,33.87-29.35,33.87-29.35-13.3-29.35-33.87Zm48.04,4.64v-9.28c0-13.92-7.53-20.57-18.69-20.57s-18.69,6.65-18.69,20.57v9.28c0,13.92,7.53,20.57,18.69,20.57s18.69-6.65,18.69-20.57Z"/>
      <path class="cls-1" d="m1523.52,676.89h22.58v-75.77h-22.58v-8.53h32.62v84.3h22.58v8.53h-55.2v-8.53Z"/>
    </g>
  </g>
</svg>